<svg width="162" height="44" viewBox="0 0 162 44" fill="none" xmlns="http://www.w3.org/2000/svg">
<path d="M42.0865 0.759998V11.704H28.9025V43H13.9905V11.704H0.742502V0.759998H42.0865ZM82.68 30.072C81.912 33.3573 80.5893 36.0027 78.712 38.008C76.8773 40.0133 74.6373 41.464 71.992 42.36C69.3467 43.2133 66.4027 43.64 63.16 43.64C58.7227 43.64 54.8827 42.7867 51.64 41.08C48.44 39.3733 45.9653 36.8987 44.216 33.656C42.5093 30.4133 41.656 26.488 41.656 21.88C41.656 17.272 42.5093 13.3467 44.216 10.104C45.9653 6.86133 48.44 4.38666 51.64 2.68C54.8827 0.973331 58.7227 0.119999 63.16 0.119999C66.2747 0.119999 69.176 0.567998 71.864 1.464C74.552 2.31733 76.8133 3.68267 78.648 5.56C80.5253 7.43733 81.7627 9.89067 82.36 12.92L69.56 17.912C69.2187 15.1387 68.5147 13.3467 67.448 12.536C66.424 11.7253 65.1227 11.32 63.544 11.32C61.3253 11.32 59.6613 12.1733 58.552 13.88C57.4427 15.544 56.888 18.2107 56.888 21.88C56.888 25.5067 57.4 28.1733 58.424 29.88C59.4907 31.5867 61.304 32.44 63.864 32.44C65.4 32.44 66.6587 31.992 67.64 31.096C68.6213 30.1573 69.24 28.6853 69.496 26.68L82.68 30.072ZM124.137 0.759998V11.704H110.953V43H96.0405V11.704H82.7925V0.759998H124.137ZM141.899 32.056H161.035V43H126.987V0.759998H141.899V32.056Z" fill="#333333"/>
</svg>
